<svg xmlns="http://www.w3.org/2000/svg" width="143.307" height="49.884" viewBox="0 0 143.307 49.884"><path id="Icon_metro-arrow-right" data-name="Icon metro-arrow-right" d="M178.449,48.884a4.99,4.99,0,0,1-3.529-8.519l11.433-11.433H65.075a4.99,4.99,0,1,1,0-9.981H186.353L174.92,7.519a4.99,4.99,0,0,1,0-7.057,4.991,4.991,0,0,1,7.057,0l19.952,19.952a4.99,4.99,0,0,1,0,7.057L181.977,47.423A4.958,4.958,0,0,1,178.449,48.884ZM65.075,20.952a2.99,2.99,0,1,0,0,5.981H191.181L176.334,41.78a2.99,2.99,0,0,0,4.229,4.229l19.952-19.952a2.99,2.99,0,0,0,0-4.229L180.563,1.876A2.99,2.99,0,1,0,176.334,6.1l14.847,14.847Z" transform="translate(-60.084 1)" fill="#a37f41"></path></svg>