<svg xmlns="http://www.w3.org/2000/svg" xmlns:xlink="http://www.w3.org/1999/xlink" id="Layer_1" x="0px" y="0px" viewBox="0 0 82.5 81.6" style="enable-background:new 0 0 82.5 81.6;" xml:space="preserve"><style type="text/css">	.st0{fill:#1A1A1A;}	.st1{fill:#AB833A;}	.st2{fill:#FFFFFF;}</style><g id="Path_157_00000078729265430887339570000005711560002393305761_">	<path class="st0" d="M42.6,6.9l4.8-4.6c0.4-0.4,1-0.4,1.3,0c0,0,0,0,0,0l0.1,0.2l3.4,5.7c0.2,0.4,0.8,0.6,1.2,0.4l6-2.9  c0.4-0.2,1,0,1.2,0.4c0,0.1,0.1,0.1,0.1,0.2l1.4,6.5c0.1,0.5,0.5,0.8,1,0.7l6.6-1c0.5-0.1,1,0.3,1.1,0.8c0,0.1,0,0.2,0,0.2L70.1,20  c0,0.5,0.3,0.9,0.8,1l6.6,1.1c0.5,0.1,0.8,0.6,0.8,1.1c0,0,0,0,0,0c0,0.1,0,0.1-0.1,0.2l-2.7,6.1c-0.2,0.4,0,1,0.4,1.2l5.9,3.1  c0.5,0.2,0.6,0.8,0.4,1.2c0,0.1-0.1,0.1-0.1,0.2l-4.4,5c-0.3,0.4-0.3,0.9,0,1.3l4.6,4.8c0.4,0.4,0.4,1,0,1.3l-0.2,0.1l-5.7,3.4  c-0.4,0.2-0.6,0.8-0.4,1.2l3,6c0.2,0.5,0,1-0.4,1.2c0,0,0,0,0,0l-0.2,0.1l-6.5,1.4c-0.5,0.1-0.8,0.5-0.7,1l1,6.6  c0,0.5-0.3,0.9-0.8,1c-0.1,0-0.1,0-0.2,0L64.5,69c-0.5,0-0.9,0.3-1,0.8l-1.1,6.6c-0.1,0.5-0.6,0.8-1.1,0.8c-0.1,0-0.2,0-0.2-0.1  L55,74.5c-0.4-0.2-1,0-1.2,0.4l-3.1,5.9c-0.2,0.5-0.8,0.6-1.3,0.4c0,0,0,0,0,0c-0.1,0-0.1-0.1-0.2-0.1l-5-4.4  c-0.4-0.3-0.9-0.3-1.3,0l-4.8,4.6c-0.4,0.4-1,0.4-1.3,0c0,0,0,0,0,0c-0.1-0.1-0.1-0.1-0.1-0.2l-3.4-5.7c-0.2-0.4-0.8-0.6-1.2-0.4  l-6,3c-0.5,0.2-1,0-1.2-0.5c0-0.1-0.1-0.1-0.1-0.2l-1.4-6.5c-0.1-0.5-0.6-0.8-1-0.7l-6.6,1c-0.5,0.1-1-0.3-1.1-0.8c0,0,0,0,0,0  c0-0.1,0-0.1,0-0.2l0.6-6.6c0-0.5-0.3-0.9-0.8-1l-6.6-1.2c-0.5-0.1-0.8-0.6-0.8-1.1c0-0.1,0-0.1,0.1-0.2l2.7-6.1  c0.2-0.4,0-1-0.4-1.2l-5.9-3.1c-0.5-0.2-0.6-0.8-0.4-1.3c0-0.1,0.1-0.1,0.1-0.2l4.4-5c0.3-0.4,0.3-0.9,0-1.3l-4.7-4.7  c-0.4-0.4-0.4-1,0-1.3c0,0,0,0,0,0c0.1-0.1,0.1-0.1,0.2-0.1l5.7-3.4c0.4-0.2,0.6-0.8,0.4-1.2l-2.9-6c-0.2-0.4,0-1,0.4-1.2  c0.1,0,0.1-0.1,0.2-0.1l6.5-1.4c0.5-0.1,0.8-0.6,0.7-1l-1-6.6c-0.1-0.5,0.3-1,0.8-1.1h0.2l6.6,0.6c0.5,0,0.9-0.3,1-0.8l1.1-6.6  c0.1-0.5,0.6-0.9,1.1-0.8c0,0,0,0,0,0l0.2,0.1l6.2,2.7c0.4,0.2,1,0,1.2-0.4l3.1-5.9c0.2-0.5,0.8-0.6,1.3-0.4c0.1,0,0.1,0.1,0.2,0.1  l5,4.4C41.7,7.3,42.3,7.3,42.6,6.9"></path></g><g id="Path_157">	<path class="st1" d="M39.6,4.9l4.8-4.6c0.4-0.4,1-0.4,1.3,0c0,0,0,0,0,0l0.1,0.2l3.4,5.7c0.2,0.4,0.8,0.6,1.2,0.4l6-2.9  c0.4-0.2,1,0,1.2,0.4c0,0.1,0.1,0.1,0.1,0.2l1.4,6.5c0.1,0.5,0.5,0.8,1,0.7l6.6-1c0.5-0.1,1,0.3,1.1,0.8c0,0.1,0,0.2,0,0.2L67.1,18  c0,0.5,0.3,0.9,0.8,1l6.6,1.1c0.5,0.1,0.8,0.6,0.8,1.1c0,0,0,0,0,0c0,0.1,0,0.1-0.1,0.2l-2.7,6.1c-0.2,0.4,0,1,0.4,1.2l5.9,3.1  c0.5,0.2,0.6,0.8,0.4,1.2c0,0.1-0.1,0.1-0.1,0.2l-4.4,5c-0.3,0.4-0.3,0.9,0,1.3l4.6,4.8c0.4,0.4,0.4,1,0,1.3l-0.2,0.1l-5.7,3.4  c-0.4,0.2-0.6,0.8-0.4,1.2l3,6c0.2,0.5,0,1-0.4,1.2c0,0,0,0,0,0l-0.2,0.1l-6.5,1.4c-0.5,0.1-0.8,0.5-0.7,1l1,6.6  c0,0.5-0.3,0.9-0.8,1c-0.1,0-0.1,0-0.2,0L61.5,67c-0.5,0-0.9,0.3-1,0.8l-1.1,6.6c-0.1,0.5-0.6,0.8-1.1,0.8c-0.1,0-0.2,0-0.2-0.1  L52,72.5c-0.4-0.2-1,0-1.2,0.4l-3.1,5.9c-0.2,0.5-0.8,0.6-1.3,0.4c0,0,0,0,0,0c-0.1,0-0.1-0.1-0.2-0.1l-5-4.4  c-0.4-0.3-0.9-0.3-1.3,0l-4.8,4.6c-0.4,0.4-1,0.4-1.3,0c0,0,0,0,0,0c-0.1-0.1-0.1-0.1-0.1-0.2l-3.4-5.7c-0.2-0.4-0.8-0.6-1.2-0.4  l-6,3c-0.5,0.2-1,0-1.2-0.5c0-0.1-0.1-0.1-0.1-0.2l-1.4-6.5c-0.1-0.5-0.6-0.8-1-0.7l-6.6,1c-0.5,0.1-1-0.3-1.1-0.8c0,0,0,0,0,0  c0-0.1,0-0.1,0-0.2l0.6-6.6c0-0.5-0.3-0.9-0.8-1l-6.6-1.2c-0.5-0.1-0.8-0.6-0.8-1.1c0-0.1,0-0.1,0.1-0.2L7.1,52  c0.2-0.4,0-1-0.4-1.2l-5.9-3.1c-0.5-0.2-0.6-0.8-0.4-1.3c0-0.1,0.1-0.1,0.1-0.2l4.4-5c0.3-0.4,0.3-0.9,0-1.3l-4.7-4.7  c-0.4-0.4-0.4-1,0-1.3c0,0,0,0,0,0c0.1-0.1,0.1-0.1,0.2-0.1l5.7-3.4c0.4-0.2,0.6-0.8,0.4-1.2l-2.9-6c-0.2-0.4,0-1,0.4-1.2  c0.1,0,0.1-0.1,0.2-0.1l6.5-1.4c0.5-0.1,0.8-0.6,0.7-1l-1-6.6c-0.1-0.5,0.3-1,0.8-1.1h0.2l6.6,0.6c0.5,0,0.9-0.3,1-0.8l1.1-6.6  c0.1-0.5,0.6-0.9,1.1-0.8c0,0,0,0,0,0l0.2,0.1l6.2,2.7c0.4,0.2,1,0,1.2-0.4l3.1-5.9c0.2-0.5,0.8-0.6,1.3-0.4c0.1,0,0.1,0.1,0.2,0.1  l5,4.4C38.7,5.3,39.3,5.3,39.6,4.9"></path></g><path class="st2" d="M15.2,29C21,15.7,36.5,9.5,49.8,15.3C56,17.9,60.9,22.8,63.6,29h1.3C59.1,15,43,8.2,29,14 c-6.8,2.8-12.2,8.2-15,15H15.2z"></path><path class="st2" d="M63.2,50.5c-6.1,13.2-21.8,18.9-34.9,12.7c-5.6-2.6-10.1-7.1-12.7-12.7h-1.3c4.4,9.9,14.3,16.4,25.1,16.4h0.7 c10.6-0.3,20.2-6.6,24.5-16.4H63.2z"></path><g id="NUEV_O">	<g>		<path class="st2" d="M11.8,34.7c0-0.1,0.1-0.3,0.3-0.3h0.4l5.6,5.4l0,0v-5c0-0.1,0.1-0.3,0.3-0.3l0,0H20c0.1,0,0.3,0.1,0.3,0.3   v9.4c0,0.1-0.1,0.3-0.3,0.2h-0.2c-0.1,0-0.1,0-0.2-0.1L14,38.9l0,0v5.2c0,0.1-0.1,0.3-0.3,0.3h-1.6c-0.1,0-0.3-0.1-0.3-0.3   L11.8,34.7z"></path>	</g>	<g>		<path class="st2" d="M24.6,34.9c0-0.1,0.1-0.3,0.3-0.3h1.7c0.1,0,0.3,0.1,0.3,0.3l0,0v5.7c-0.1,1,0.6,1.8,1.6,1.9   c1,0.1,1.8-0.6,1.9-1.6c0-0.1,0-0.2,0-0.3v-5.7c0-0.1,0.1-0.3,0.3-0.3l0,0h1.7c0.1,0,0.3,0.1,0.3,0.3v5.8c0,2.2-1.8,4-4,4   s-4-1.8-4-4L24.6,34.9z"></path>	</g>	<g>		<path class="st2" d="M36.9,34.9c0-0.1,0.1-0.3,0.3-0.3H43c0.1,0,0.3,0.1,0.3,0.3l0,0v1.5c0,0.1-0.1,0.3-0.3,0.3c0,0,0,0,0,0h-3.9   v1.7h3.2c0.1,0,0.3,0.1,0.3,0.3v1.5c0,0.1-0.1,0.3-0.2,0.3c0,0,0,0,0,0h-3.2v1.9H43c0.1,0,0.3,0.1,0.3,0.3l0,0v1.5   c0,0.1-0.1,0.3-0.3,0.3l0,0h-5.8c-0.1,0-0.3-0.1-0.3-0.3L36.9,34.9z"></path>	</g>	<g>		<path class="st2" d="M46,35c-0.1-0.1,0-0.3,0.1-0.3c0,0,0.1,0,0.1,0h1.9c0.1,0,0.2,0.1,0.2,0.2l2.3,5.1h0.1l2.3-5.2   c0-0.1,0.1-0.2,0.2-0.2h1.9c0.1,0,0.3,0.1,0.3,0.2c0,0,0,0.1,0,0.1l-4.4,9.4c0,0.1-0.1,0.2-0.2,0.2h-0.1c-0.1,0-0.2-0.1-0.2-0.2   L46,35z"></path>		<path class="st2" d="M63.9,34.5c2.8,0,5,2.2,5,5c0,2.8-2.2,5-5,5c-2.7,0-5-2.2-5-4.9C58.9,36.7,61.1,34.5,63.9,34.5   C63.8,34.5,63.9,34.5,63.9,34.5z M63.9,42.3c1.6,0,2.8-1.2,2.8-2.8c0-1.6-1.2-2.8-2.8-2.8c-1.6,0-2.8,1.2-2.8,2.8c0,0,0,0,0,0   C61.1,41,62.4,42.3,63.9,42.3z"></path>	</g></g></svg>