<svg xmlns="http://www.w3.org/2000/svg" id="Layer_1" data-name="Layer 1" viewBox="0 0 214.66 214.66"><defs><style>.cls-1{isolation:isolate;}.cls-2{fill:#fff;}.cls-3{fill:#a37f41;}.cls-4{fill:none;stroke:#a37f41;stroke-miterlimit:10;}</style></defs><g class="cls-1"><path class="cls-2" d="M78.83,19.21l-2.16.68a.75.75,0,0,1-.55-.27l-.4-1.36v-.41l2.44-3.52,2-.54a.71.71,0,0,1,.54.27l4.2,14.23c0,.27,0,.4-.27.54l-2.44.68a.4.4,0,0,1-.54-.27Z"></path></g><g class="cls-1"><path class="cls-2" d="M89.81,19.34c-.54-5,1.22-8.26,4.88-8.67S100.92,13,101.46,18s-1.22,8.26-4.88,8.67S90.35,24.36,89.81,19.34Zm8-.94c-.4-3-1.35-4.61-2.71-4.47s-2,1.89-1.62,5,1.35,4.6,2.71,4.47S98.21,21.38,97.8,18.4Z"></path></g><g class="cls-1"><path class="cls-2" d="M108.51,17.72c.4-5,2.84-7.86,6.64-7.45s5.55,3.52,5.14,8.53-2.84,7.86-6.64,7.45S108,22.73,108.51,17.72Zm8,.68c.27-3-.41-4.75-1.76-4.88S112.44,15,112.16,18s.41,4.74,1.77,4.88S116.23,21.51,116.5,18.4Z"></path></g><g class="cls-1"><path class="cls-2" d="M137.77,14.87a.52.52,0,0,1,.41-.13l1.62.54c.28.14.41.41.14.68L127.88,28.15c-.13,0-.27.14-.41.14l-1.62-.55c-.27-.13-.41-.4-.14-.67Zm-9.89-.4a3.13,3.13,0,1,1,6,1.89,3.15,3.15,0,0,1-3.93,2A3,3,0,0,1,127.88,14.47Zm3.66,1.22a.78.78,0,0,0-.54-.95.77.77,0,0,0-.41,1.49A.78.78,0,0,0,131.54,15.69ZM136,24.63a3.13,3.13,0,1,1-3.93,2A3.14,3.14,0,0,1,136,24.63Zm-1.08,3.79a.77.77,0,0,0,.95-.54.78.78,0,0,0-1.5-.41A.84.84,0,0,0,134.93,28.42Z"></path></g><g class="cls-1"><path class="cls-2" d="M59.05,170.42c.14-.14.41-.28.54-.14l.41.27,2.3,12.6h0l4.75-6.64a.58.58,0,0,1,.67-.13L70,178a.6.6,0,0,1,.13.68l-9.07,12.6c-.14.14-.41.27-.55.14l-.27-.28-.13-.27-2-12.73h0l-5,6.91a.6.6,0,0,1-.68.13l-2.16-1.62a.59.59,0,0,1-.14-.68Z"></path></g><g class="cls-1"><path class="cls-2" d="M67.18,194.4l12.47-11.66a.5.5,0,0,1,.4-.13l.27.13c.14,0,.28.28.28.41l.94,17.07c0,.27-.27.54-.54.41l-2.44-.95a.75.75,0,0,1-.54-.81l-.13-2-5.83-2.31-1.49,1.36a.85.85,0,0,1-.95.27l-2.3-.95C66.91,194.94,66.91,194.53,67.18,194.4Zm10.57-1.09-.27-4.2h0l-3,2.85Z"></path></g><g class="cls-1"><path class="cls-2" d="M91,189.79l-3.25-.54c-.27,0-.41-.27-.41-.54l.41-2.44c0-.27.27-.41.54-.41l10,1.9c.28,0,.41.27.41.54l-.41,2.44c0,.27-.27.4-.54.4l-3.25-.54-2.3,12.06c0,.27-.27.41-.54.41L89,202.53c-.28,0-.41-.27-.41-.55Z"></path></g><g class="cls-1"><path class="cls-2" d="M102,188.71a.37.37,0,0,1,.41-.41l2.84-.14a.36.36,0,0,1,.41.41l.27,9.35a2.92,2.92,0,0,0,5.83-.14l-.27-9.34c0-.28.13-.41.4-.41l2.85-.14a.37.37,0,0,1,.41.41l.27,9.48a6.58,6.58,0,0,1-13.15.41Z"></path></g><g class="cls-1"><path class="cls-2" d="M120,187.49c0-.27,0-.41.27-.55l6.64-1.89a5.17,5.17,0,0,1,6.24,3.39,5.11,5.11,0,0,1-2,5.41l4.61,4.75a.5.5,0,0,1-.14.81l-3,.81c-.13,0-.4,0-.4-.13l-4.61-5-1.49.41,1.63,5.69c0,.27-.14.54-.28.54l-2.57.68c-.27,0-.54-.13-.54-.27Zm8.54,4.33a1.88,1.88,0,0,0,1.22-2.3,1.74,1.74,0,0,0-2.17-1.22l-3.25.95,1,3.52Z"></path></g><g class="cls-1"><path class="cls-2" d="M141.29,196.84l-1.08-17.08c0-.13.14-.27.27-.4l.14-.14c.13-.13.27,0,.4,0l13.82,10.16a.39.39,0,0,1,0,.68l-2.3,1.22a.82.82,0,0,1-.95-.14L150,189.93l-5.56,3,.14,2a1,1,0,0,1-.41.95L142,197.11C141.57,197.38,141.29,197.11,141.29,196.84Zm6-8.81-3.39-2.44h0l.27,4.2Z"></path></g><g class="cls-1"><path class="cls-2" d="M150.1,174.07a.61.61,0,0,1,0-.67l2-1.77a.63.63,0,0,1,.68,0l8,9.35,4.2-3.52a.58.58,0,0,1,.67,0l1.63,1.9a.61.61,0,0,1,0,.67l-6.64,5.7a.63.63,0,0,1-.68,0Z"></path></g><g class="cls-1"><path class="cls-3" d="M58.1,34.11c-.27,0-.4-.27-.27-.54l.82-3.12-3.12-.81c-.27,0-.27-.27-.27-.54l.41-1.49c0-.27.27-.41.54-.27l3.11.81L60.14,25c0-.28.27-.28.54-.28l1.49.41c.27,0,.41.27.27.54l-.81,3.12,3.11.81c.27,0,.27.27.27.54l-.4,1.49c0,.28-.27.41-.54.28L61,31.13l-.81,3.12c0,.27-.27.4-.55.27Z"></path></g><g class="cls-1"><path class="cls-3" d="M151.59,31.67c0-.27.14-.4.27-.4l3.12-.68-.68-3.12c0-.27.14-.4.27-.4l1.49-.27a.68.68,0,0,1,.54.27l.68,3.11,3.12-.67c.27,0,.41.13.41.27l.27,1.49a.73.73,0,0,1-.27.54l-3.12.68.68,3.11c0,.27-.14.41-.27.41l-1.5.27a.69.69,0,0,1-.54-.27l-.67-3.12-3.12.68c-.27,0-.41-.13-.41-.27Z"></path></g><g class="cls-1"><path class="cls-3" d="M38.73,161.34c0-.27.27-.41.41-.27l3.11.54.54-3.12c0-.27.27-.4.41-.27l1.49.27a.44.44,0,0,1,.41.41L44.56,162l3.11.55c.27,0,.41.27.27.4l-.27,1.49a.44.44,0,0,1-.4.41l-3.12-.54-.54,3.11c0,.28-.27.41-.41.28l-1.49-.28a.44.44,0,0,1-.41-.4l.55-3.12-3.12-.54c-.27,0-.41-.27-.27-.41Z"></path></g><g class="cls-1"><path class="cls-3" d="M171.64,165.81c-.27,0-.4-.14-.4-.27l-.68-3.12-3.12.54c-.27,0-.4-.13-.4-.27l-.27-1.49a.69.69,0,0,1,.27-.54l3.11-.68-.67-3.11c0-.27.13-.41.27-.41l1.49-.27a.69.69,0,0,1,.54.27l.68,3.12,3.11-.68c.27,0,.41.13.41.27l.27,1.49a.68.68,0,0,1-.27.54l-3.12.68.68,3.12c0,.27-.13.4-.27.4Z"></path></g><path id="Path_42" data-name="Path 42" class="cls-4" d="M57.16,149.69a66.77,66.77,0,1,1,94,8.67h0a66.82,66.82,0,0,1-94-8.67"></path><polygon class="cls-2" points="105.39 125.84 116.36 111.61 108.37 111.61 114.74 101.72 112.44 100.37 103.36 114.32 110.81 114.32 103.22 124.21 105.39 125.84"></polygon><path class="cls-2" d="M108.91,65.55A41.46,41.46,0,0,0,67.45,107a41,41,0,0,0,12.2,29.26,41.43,41.43,0,1,0,29.26-70.72ZM70.16,107A38.72,38.72,0,0,1,135.6,79L121.51,93.05c-.4,0-.67-.13-1.08-.13h-2.3V91.7h4.2v-11H95.5v11h4.2v1.22H97.4a7.72,7.72,0,0,0-7.73,7.72v24.25h0l-8.8,8.81A38.53,38.53,0,0,1,70.16,107Zm32.25-15.18h13v3.93h5a5,5,0,0,1,5,5v29.81H92.38V100.77a5,5,0,0,1,5-5h5ZM99.7,89.12H98.07V83.57h21.55v5.55H99.7Zm36.58,45.25a38.64,38.64,0,0,1-53.52,1.22l6.91-6.91v4.61h38.48V100.77a7.64,7.64,0,0,0-3.79-6.64l13.28-13.27a38.48,38.48,0,0,1-1.36,53.51Z"></path></svg>