<svg xmlns="http://www.w3.org/2000/svg" id="Layer_1" data-name="Layer 1" viewBox="0 0 214.66 214.66"><defs><style>.cls-1{isolation:isolate;}.cls-2{fill:#fff;}.cls-3{fill:#a37f41;}.cls-4{fill:none;stroke:#a37f41;stroke-miterlimit:10;}</style></defs><g class="cls-1"><path class="cls-2" d="M50.26,28c-.14-.14,0-.41.14-.54l.27-.14c.13,0,.27-.14.4,0l9.62,5.83h0l-.27-11.25c0-.14.14-.27.27-.41l.27-.13c.14-.14.41,0,.55.13L71.67,33.58c.13.27.13.54-.14.68l-2.3,1.35c-.14.14-.41,0-.54-.13l-4.47-5.56h0l.4,8.4c0,.14-.13.41-.27.41l-.41.27c-.13.14-.27,0-.4,0l-7.18-4.47h0l2.71,6.64c.13.14,0,.41-.14.54l-2.3,1.36A.5.5,0,0,1,56,42.8Z"></path></g><g class="cls-1"><path class="cls-2" d="M72.89,16.78c0-.27,0-.4.27-.54l9.08-2.71a.4.4,0,0,1,.54.27l.68,2.44c0,.27,0,.41-.28.54l-6.09,1.9.81,2.71,5-1.49c.27,0,.55.13.55.27l.67,2.44a.39.39,0,0,1-.27.54l-5,1.49,1,3,6.09-1.9a.41.41,0,0,1,.55.27l.67,2.44c0,.27,0,.41-.27.55l-9.08,2.71a.4.4,0,0,1-.54-.28Zm2.44-2.84-.68-.82a.24.24,0,0,1,0-.4l3.11-3.39c.14-.14.41-.27.55-.14l1.08,1.09c.27.27.27.54.14.68l-3.53,3A.44.44,0,0,1,75.33,13.94Z"></path></g><g class="cls-1"><path class="cls-2" d="M93.89,14.88l-3.39.28c-.27,0-.41-.14-.54-.41l-.27-2.44c0-.27.13-.41.4-.54l10.17-1.09c.27,0,.4.14.54.41l.27,2.44c0,.27-.14.41-.41.54l-3.25.41,1.36,12.19c0,.27-.14.41-.41.54l-2.71.28c-.27,0-.41-.14-.54-.41Z"></path></g><g class="cls-1"><path class="cls-2" d="M116.11,10.82a8.26,8.26,0,0,1,7.45,9.08,8.24,8.24,0,0,1-16.39-1.76A8,8,0,0,1,116.11,10.82Zm-1.36,12.87a4.57,4.57,0,0,0,5-4.06,4.5,4.5,0,0,0-4.07-5,4.66,4.66,0,0,0-5,4.2A4.6,4.6,0,0,0,114.75,23.69Z"></path></g><g class="cls-1"><path class="cls-2" d="M133.59,14.61c.13-.27.27-.4.54-.27l5.28,1.9a8.1,8.1,0,0,1,4.88,10.3,8.19,8.19,0,0,1-10.43,4.87l-5.29-1.89c-.27-.14-.27-.27-.27-.54Zm1.22,13.55a4.47,4.47,0,0,0,5.82-2.84,4.48,4.48,0,0,0-2.57-6l-2-.82-3.39,8.81Z"></path></g><g class="cls-1"><path class="cls-2" d="M161.5,27.21A8.29,8.29,0,1,1,150,29.38,8.28,8.28,0,0,1,161.5,27.21Zm-7.18,10.57a4.58,4.58,0,1,0-1.22-6.37A4.44,4.44,0,0,0,154.32,37.78Z"></path></g><g class="cls-1"><path class="cls-2" d="M52.16,164.87a.61.61,0,0,1,.67,0l3.8,3.79c1.9,1.9,2.17,4.88.54,6.51-1.22,1.22-3.25,1.08-4.47.68.54,1.22,1.08,3.38-.41,4.87-1.76,1.9-4.74,1.49-6.64-.4l-4.06-4.07a.59.59,0,0,1,0-.68Zm-4.74,12.74a1.57,1.57,0,0,0,2.3,0,1.73,1.73,0,0,0-.27-2.44l-1.36-1.36-2.3,2.31Zm4.2-4.61a1.55,1.55,0,0,0,2.3,0,1.67,1.67,0,0,0,0-2.3l-1.22-1.22-2.3,2.3Z"></path></g><g class="cls-1"><path class="cls-2" d="M53.51,187l14.36-9.35a.25.25,0,0,1,.41,0l.14.13c.13.14.27.27.13.41l-2.17,16.94a.4.4,0,0,1-.67.27L63.54,194c-.41-.27-.41-.41-.41-.95l.27-2-5.28-3.39-1.63,1.09a.82.82,0,0,1-1,0l-2.16-1.36C53.24,187.5,53.24,187.23,53.51,187Zm10.71.94.54-4.2h0L61.24,186Z"></path></g><g class="cls-1"><path class="cls-2" d="M77.36,183.57c.13-.27.27-.41.54-.27l6.5,2.3a4.93,4.93,0,0,1-1.62,9.62l1.08,6.5c0,.28-.27.68-.54.55l-2.85-1c-.13,0-.27-.27-.27-.27l-.94-6.78-1.5-.54-1.89,5.56c-.14.27-.27.4-.54.27l-2.58-.95c-.27-.14-.4-.27-.27-.54ZM82,192a2,2,0,0,0,2.31-1.22,1.67,1.67,0,0,0-1.09-2.17l-3.25-1.08-1.22,3.39Z"></path></g><g class="cls-1"><path class="cls-2" d="M93.35,188.45c0-.27.27-.41.54-.41l5.28.54c2.71.27,4.74,2.44,4.47,4.74-.13,1.77-1.89,2.85-3,3.39,1.22.68,2.85,1.9,2.71,4.07-.27,2.57-2.71,4.2-5.42,3.92l-5.69-.54c-.27,0-.4-.27-.4-.54Zm4.33,13A1.5,1.5,0,0,0,99.44,200a1.7,1.7,0,0,0-1.76-1.76l-1.9-.13-.4,3.25Zm.41-6.36a1.65,1.65,0,0,0,1.76-1.5,1.57,1.57,0,0,0-1.49-1.76l-1.76-.13L96.19,195Z"></path></g><g class="cls-1"><path class="cls-2" d="M108.25,205l5.42-16.26c0-.14.13-.27.41-.27h.27c.13,0,.27.13.4.27l9,14.63a.5.5,0,0,1-.28.68l-2.57.27c-.41,0-.68,0-.81-.54L119,202l-6.23.67-.68,1.9a1.07,1.07,0,0,1-.81.68l-2.57.27C108.39,205.52,108.11,205.25,108.25,205Zm8.81-6-2.17-3.52h0l-1.22,3.93Z"></path></g><g class="cls-1"><path class="cls-2" d="M131.15,184.38a7.54,7.54,0,0,1,6,.14c.27.13.41.4.27.54l-1.08,2.3c-.14.27-.27.27-.55.14a4.8,4.8,0,0,0-3.38,0,4.61,4.61,0,0,0-2.71,6,4.42,4.42,0,0,0,5.82,2.84,4.79,4.79,0,0,0,2.58-2c.13-.13.4-.27.54-.13l2.3,1.22a.34.34,0,0,1,.14.54,8,8,0,0,1-4.47,3.93,8.19,8.19,0,1,1-5.42-15.45Z"></path></g><g class="cls-1"><path class="cls-2" d="M140,181.54c-.13-.14,0-.55.14-.55l2.3-1.62c.27-.14.55-.14.55.13l5.14,7.86a2.74,2.74,0,0,0,3.93.82,2.9,2.9,0,0,0,.82-4.07l-5.15-7.86a.33.33,0,0,1,.13-.54l2.31-1.63c.13-.13.54-.13.54.14l5.28,8a6.46,6.46,0,0,1-2,8.95,6.35,6.35,0,0,1-8.94-1.77Z"></path></g><g class="cls-1"><path class="cls-2" d="M155.26,167.45l-1.08-.28c-.13,0-.27-.27-.27-.4l1-4.47a.61.61,0,0,1,.4-.41l1.49.41a.5.5,0,0,1,.41.54l-1.49,4.33C155.81,167.45,155.54,167.58,155.26,167.45Zm8.81,15.71-6.37-15.85c0-.14,0-.41.14-.41l.13-.13a.5.5,0,0,1,.41-.14l16.26,5.29c.27.13.41.4.14.67l-1.77,1.9a.65.65,0,0,1-.94.14l-1.9-.68-4.34,4.61.82,1.89a.85.85,0,0,1-.14,1l-1.76,1.9C164.48,183.57,164.21,183.43,164.07,183.16Zm2.85-10.29L163,171.51h0l1.62,3.79Z"></path></g><g class="cls-1"><path class="cls-3" d="M37.25,53.77a.36.36,0,0,1-.4-.41l-.14-3.11-3.25.13a.36.36,0,0,1-.41-.4l-.13-1.49a.36.36,0,0,1,.4-.41l3.12-.14-.13-3.11a.36.36,0,0,1,.4-.41l1.49-.13a.36.36,0,0,1,.41.4l.13,3.12L42,47.67a.36.36,0,0,1,.4.41l.14,1.49a.37.37,0,0,1-.41.41l-3.25.13L39,53.23a.35.35,0,0,1-.4.4Z"></path></g><g class="cls-1"><path class="cls-3" d="M172.74,50.38a.43.43,0,0,1,.41-.4l3.12.4.4-3.11a.44.44,0,0,1,.41-.41l1.49.14a.44.44,0,0,1,.41.4l-.41,3.12,3.11.4c.28,0,.41.28.28.41l-.14,1.49a.44.44,0,0,1-.41.41l-3.11-.41-.41,3.12c0,.27-.27.4-.41.27L176,56.07a.43.43,0,0,1-.4-.4l.4-3.12-3.11-.41a.44.44,0,0,1-.41-.4Z"></path></g><g class="cls-1"><path class="cls-3" d="M33.05,153c0-.27.27-.27.55-.27l3,.95.94-3c0-.27.28-.27.55-.27l1.49.41c.27,0,.4.27.27.54l-.95,3,3.12.95c.27,0,.27.27.27.54l-.41,1.49c0,.27-.27.41-.54.27l-3.12-.94-1,3.11c0,.27-.27.27-.54.27l-1.49-.4c-.27,0-.41-.27-.27-.54l.95-3.12-3-1c-.27,0-.27-.27-.27-.54Z"></path></g><g class="cls-1"><path class="cls-3" d="M177.21,157.83c-.13.13-.4,0-.54-.28l-.95-3-3,1c-.13.14-.4,0-.54-.27l-.54-1.49c0-.27,0-.41.27-.54l3-.95-1.08-3c-.14-.27,0-.41.27-.54l1.49-.54c.27,0,.4,0,.54.27l1.08,3,3-1.09c.14-.13.41,0,.55.27l.4,1.5c.14.27,0,.4-.27.54l-3,1.08,1,3c.14.27,0,.41-.27.54Z"></path></g><path id="Path_18" data-name="Path 18" class="cls-4" d="M55.94,149.7a66.77,66.77,0,1,1,94,8.67h0a66.82,66.82,0,0,1-94-8.67h0"></path><path class="cls-2" d="M141.94,132.62a3.34,3.34,0,0,0,1.35-1.34,6.66,6.66,0,0,0,1-5.06c-.68-3.38-3.21-5.57-5.91-5.23h0l-10.28,1.69a21.1,21.1,0,0,0,3-11.13,24.65,24.65,0,0,0-9.27-19.23c-3.88-3.2-8.6-8.09-8.43-12.64a8.48,8.48,0,0,1,4-6.24c.17-.17.34-.34.34-.51.17-.67,0-1.35-.67-1.52-.34-.16-9.61-3.7-15.85.85-3.54,2.7-5.4,7.42-5.23,14-2.36-.33-6.58-.67-9.27,1.18a4.82,4.82,0,0,0-2,3.38,1.34,1.34,0,0,0,.85,1.35c1.51.33,5.73,1.68,6.57,4,.51,1.35-.17,2.87-1.85,4.72v.17c-.17.34-5.9,8.43-3.71,16.86A17.14,17.14,0,0,0,89,123l-13-2.19h0c-2.69-.34-5.22,1.86-5.73,5.23a6.8,6.8,0,0,0,1,5.06,5.41,5.41,0,0,0,1.35,1.35,6.18,6.18,0,0,0-2.36,6.4,6.69,6.69,0,0,0,2,3.88,4.65,4.65,0,0,0,3.21,1.35h.67l31.2-5.4,31,5.23h.68a4.56,4.56,0,0,0,3.2-1.35,6.7,6.7,0,0,0,2-3.88A5.66,5.66,0,0,0,141.94,132.62Zm-15.17-7.25h.17l12-2h0c1.35-.17,2.87,1.35,3.2,3.37a4.19,4.19,0,0,1-.67,3.21,1.52,1.52,0,0,1-1.35.84h-.17l-3.37.51h0l-56.83,9.61a6.44,6.44,0,0,0,.34-4,6.89,6.89,0,0,0-1.69-3.54l19.56-3.37h0c.17,0,.34-.17.51-.17a26.55,26.55,0,0,0,7.93,2.19h.16a13.59,13.59,0,0,0,2.7.17h0a25.52,25.52,0,0,0,11.13-2.53,17.81,17.81,0,0,0,5.9-4.55C126.43,125.37,126.6,125.37,126.77,125.37Zm-15.85-8.09c1.35,1,3.71.51,7.76-1.86a9.23,9.23,0,0,1,1.85,5.57q-.25,4.31-5.56,8.09l-.17.17a26.47,26.47,0,0,1-8.1.68c-.5-.17-10.11-2.36-10.62-9.62a8.71,8.71,0,0,1,4.38-7.92c5.4-3.2,8.1-7.42,7.93-11.8a9.68,9.68,0,0,1,3,4.21,11.46,11.46,0,0,1-1.18,9.11v.17A2.9,2.9,0,0,0,110.92,117.28Zm-18.38-14.5h0c2.19-2.53,2.87-4.89,2.19-6.92-1-3-5.06-4.72-7.08-5.22.17-.34.5-.51.67-.85,2.2-1.51,7.09-1,8.94-.67h.34a1,1,0,0,0,1-1.18c-.34-6.58,1-11.13,4.21-13.49,3.71-2.7,8.77-1.85,11.64-1.18a9.36,9.36,0,0,0-3.37,6.58c-.17,5.56,4.89,11,9.27,14.5a22.46,22.46,0,0,1,8.43,17.37c0,6.91-2.86,12-8.43,15.34a11.86,11.86,0,0,0,2.36-5.9,11.07,11.07,0,0,0-3-8.1,1,1,0,0,0-1.35-.16c-3.88,2.36-5.4,2.52-5.74,2.52h-.16v-.5a13.53,13.53,0,0,0,1.18-10.79,12.28,12.28,0,0,0-6.24-6.75.77.77,0,0,0-.85,0,1,1,0,0,0-.67,1.52c1.85,5.56-2.53,9.44-6.41,11.8a10.68,10.68,0,0,0-5.39,10.12,11,11,0,0,0,2.36,5.9c-3.88-2.36-6.24-5.22-7.08-8.77C87.31,110.53,92,103.28,92.54,102.78ZM72.81,126.72c.34-2,1.86-3.54,3.2-3.37h0l15.52,2.7h.17a24.73,24.73,0,0,0,3.37,2.36l-17.2,2.87-3-.51h-.16a3.69,3.69,0,0,1-1.35-.84A4.36,4.36,0,0,1,72.81,126.72Zm0,11.81c-.34-2,.51-3.88,1.86-4.22H75a2.16,2.16,0,0,1,1.52.67,5.4,5.4,0,0,1,1.35,2.53c.34,2-.51,3.88-1.86,4.22h0a2.56,2.56,0,0,1-1.85-.67A3.81,3.81,0,0,1,72.81,138.53Zm63.4-4.73a6.27,6.27,0,0,0-1.52,3.38,6.47,6.47,0,0,0,.51,4l-20.91-3.71Zm5.9,4.73a4.64,4.64,0,0,1-1.35,2.53,2.54,2.54,0,0,1-1.85.67h0c-1.35-.34-2.19-2.19-1.86-4.22A4.71,4.71,0,0,1,138.4,135a1.86,1.86,0,0,1,1.52-.67h.34C141.61,134.65,142.45,136.5,142.11,138.53Z"></path></svg>