<svg xmlns="http://www.w3.org/2000/svg" id="Layer_1" data-name="Layer 1" viewBox="0 0 214.66 214.66"><defs><style>.cls-1{isolation:isolate;}.cls-2{fill:#fff;}.cls-3{fill:#a37f41;}.cls-4{fill:none;stroke:#a37f41;stroke-miterlimit:10;}</style></defs><g id="Group_13" data-name="Group 13"><g class="cls-1"><path class="cls-2" d="M37,39.25a.58.58,0,0,1,0-.67l4.06-3.66a5.09,5.09,0,1,1,6.78,7.58l-1.76,1.63,3.66,4.07a.61.61,0,0,1,0,.67l-2,1.76a.58.58,0,0,1-.67,0Zm8.67,1a1.88,1.88,0,0,0,.14-2.57,1.71,1.71,0,0,0-2.44,0L41.62,39l2.3,2.58Z"></path></g><g class="cls-1"><path class="cls-2" d="M52.05,26.92c-.14-.13,0-.4.13-.54l6-3.39a5,5,0,0,1,6.77,1.77,4.92,4.92,0,0,1-.68,5.69L69.93,34c.27.13.27.54,0,.81l-2.71,1.49c-.13.14-.27,0-.4,0l-5.69-3.79-1.36.81,3,5.15c.14.14,0,.54-.13.54l-2.44,1.36c-.27.13-.54,0-.54-.14Zm9.21,2a1.74,1.74,0,0,0,.54-2.44,1.93,1.93,0,0,0-2.44-.68L56.52,27.6l1.76,3.12Z"></path></g><g class="cls-1"><path class="cls-2" d="M78.06,14.05a8.27,8.27,0,1,1-5.55,10.3A8.26,8.26,0,0,1,78.06,14.05Zm3.66,12.47A4.59,4.59,0,1,0,76,23.4,4.6,4.6,0,0,0,81.72,26.52Z"></path></g><g class="cls-1"><path class="cls-2" d="M102.59,10a7.67,7.67,0,0,1,5.69,1.89c.27.14.27.41,0,.68l-1.63,1.9a.42.42,0,0,1-.54,0,4.45,4.45,0,0,0-3.12-1,4.6,4.6,0,0,0-4.2,5A4.56,4.56,0,0,0,103.53,23a4.94,4.94,0,0,0,3-1.21.4.4,0,0,1,.54,0L109,23.54a.58.58,0,0,1,0,.67,7.89,7.89,0,0,1-5.42,2.58,8.14,8.14,0,0,1-8.67-7.86A8.12,8.12,0,0,1,102.59,10Z"></path></g><g class="cls-1"><path class="cls-2" d="M117,10.94c0-.28.27-.41.54-.41L127,12c.27,0,.41.27.41.54L127,15c0,.27-.27.41-.54.41l-6.23-.95-.41,2.84,5.15.82c.27,0,.41.27.41.54l-.41,2.44c0,.27-.27.4-.54.4l-5.15-.81-.54,3.12,6.37,1c.27,0,.4.27.4.54l-.4,2.44c0,.27-.27.4-.54.4l-9.49-1.49c-.27,0-.41-.27-.41-.54Z"></path></g><g class="cls-1"><path class="cls-2" d="M130.23,27.19l1.62-1.49c.27-.27.68,0,.81.14a7.36,7.36,0,0,0,2.58,2.3,1.6,1.6,0,0,0,2-.81c.27-.95-.13-1.9-1.49-3-1.63-1.36-3.39-3.66-2.44-6.37.81-2.17,3.25-3.66,6.51-2.44a9,9,0,0,1,4.06,3.25.43.43,0,0,1-.14.68L142,20.69c-.27.14-.67.27-.81,0a9,9,0,0,0-2.57-2.44,1.39,1.39,0,0,0-1.77.54c-.27.82.14,1.63,1.63,3s3.66,3.52,2.57,6.5c-.81,2.17-3.52,3.79-6.77,2.57-2.84-1.08-3.93-2.71-4.2-3.38C130.09,27.6,130,27.47,130.23,27.19Z"></path></g><g class="cls-1"><path class="cls-2" d="M159.36,25.16a8.33,8.33,0,0,1,2.57,11.52,8.25,8.25,0,0,1-14-8.81A8.13,8.13,0,0,1,159.36,25.16ZM152.45,36a4.6,4.6,0,0,0,5-7.72,4.62,4.62,0,0,0-6.37,1.49A4.45,4.45,0,0,0,152.45,36Z"></path></g><g class="cls-1"><path class="cls-2" d="M162.74,45.08l2.17-.54a.54.54,0,0,1,.68.4,6.19,6.19,0,0,0,1.35,3.26,1.53,1.53,0,0,0,2.17.13c.68-.68.68-1.76,0-3.39-.81-1.89-1.49-4.74.41-6.77,1.62-1.63,4.47-2,7,.54a9.77,9.77,0,0,1,2.31,4.74c.13.27-.27.55-.41.68l-2,.41a1,1,0,0,1-.82-.41,6.52,6.52,0,0,0-1.35-3.25,1.32,1.32,0,0,0-1.9-.14c-.54.55-.54,1.49.14,3.39s1.76,4.74-.41,7a5,5,0,0,1-7.18-.55,7.28,7.28,0,0,1-2.44-4.87C162.34,45.35,162.34,45.21,162.74,45.08Z"></path></g><g class="cls-1"><path class="cls-2" d="M27.8,154.28l17.07-1.62c.13,0,.27.13.4.27l.14.13c.13.14,0,.28,0,.41l-9.76,14.09a.38.38,0,0,1-.67,0l-1.36-2.17c-.27-.4-.13-.54.14-.94l1.08-1.63-3.11-5.42-2,.27a1,1,0,0,1-1-.41l-1.22-2.16C27.25,154.55,27.39,154.28,27.8,154.28ZM36.74,160l2.44-3.38h0L35,157Z"></path></g><g class="cls-1"><path class="cls-2" d="M50.56,162.41a.63.63,0,0,1,.68,0l4.74,5a5,5,0,0,1-.14,7,4.89,4.89,0,0,1-5.69.68l-2,6.37a.51.51,0,0,1-.81.13l-2.17-2.17a.48.48,0,0,1-.14-.4l2.31-6.37-1.09-1.08L42,175.69a.59.59,0,0,1-.68,0l-1.89-2a.59.59,0,0,1,0-.68Zm.13,9.49a1.91,1.91,0,0,0,2.58,0,1.71,1.71,0,0,0,0-2.44L51,167l-2.57,2.44Z"></path></g><g class="cls-1"><path class="cls-2" d="M62.62,177.59l-2.71-1.9a.34.34,0,0,1-.14-.54l1.36-2c.13-.14.4-.27.54-.14l8.4,5.83a.33.33,0,0,1,.13.54l-1.35,2c-.14.14-.41.27-.54.14l-2.71-1.9-6.91,10.16c-.14.14-.41.27-.54.14l-2.31-1.63c-.13-.13-.27-.41-.13-.54Z"></path></g><g class="cls-1"><path class="cls-2" d="M73.59,181.11a.55.55,0,0,1,.54-.27l8.81,3.79a.55.55,0,0,1,.27.55l-.95,2.3a.53.53,0,0,1-.54.27l-5.83-2.57-1.08,2.57,4.88,2a.55.55,0,0,1,.27.54L79,192.63a.54.54,0,0,1-.54.27l-4.88-2-1.22,2.84,5.83,2.58a.53.53,0,0,1,.27.54l-1,2.3a.55.55,0,0,1-.54.27l-8.81-3.79a.55.55,0,0,1-.27-.54Z"></path></g><g class="cls-1"><path class="cls-2" d="M83.62,199.54l1.49-1.63a.61.61,0,0,1,.81,0c.14,0,1.49,1.63,3,1.9a1.59,1.59,0,0,0,1.9-1.09c.13-.94-.41-1.89-1.9-2.71-1.76-1.22-3.93-3.25-3.39-6,.41-2.17,2.71-4.06,6.1-3.38a8.66,8.66,0,0,1,4.47,2.71.6.6,0,0,1,0,.81l-1.49,1.49a.64.64,0,0,1-.81.13,7.39,7.39,0,0,0-3-2,1.38,1.38,0,0,0-1.63.81c-.13.82.41,1.63,2,2.71s4.07,3,3.53,6.1a5.06,5.06,0,0,1-6.24,3.52c-3-.67-4.33-2.16-4.74-2.84C83.48,199.94,83.48,199.81,83.62,199.54Z"></path></g><g class="cls-1"><path class="cls-2" d="M98.93,204.14l7-15.58c.14-.13.27-.27.41-.27h.27c.14,0,.27.14.41.27L114.37,204c.14.27,0,.54-.4.54h-2.58c-.4,0-.54-.14-.81-.54l-.81-1.76h-6.24l-.81,1.89a.92.92,0,0,1-.81.55H99.33C98.93,204.69,98.79,204.41,98.93,204.14Zm9.48-5-1.76-3.79h0l-1.76,3.79Z"></path></g><g class="cls-1"><path class="cls-2" d="M117.08,188.29a.71.71,0,0,1,.27-.54l.55-.14L129,193.85h0L127,186a.71.71,0,0,1,.27-.54l2.71-.68a.7.7,0,0,1,.55.27l3.79,15a.71.71,0,0,1-.27.54l-.41.14h-.27l-11.11-6.64h0l2.17,8.26a.71.71,0,0,1-.27.54l-2.71.68c-.27,0-.54-.13-.54-.27Z"></path></g><g class="cls-1"><path class="cls-2" d="M140.79,197.5l-1.08-17.07c0-.13.14-.27.27-.4l.27-.14c.14-.13.27,0,.41,0l13.68,10.16a.39.39,0,0,1,0,.68L152,192a.85.85,0,0,1-.95-.14l-1.62-1.22-5.56,3,.14,2a1,1,0,0,1-.41.95l-2.17,1.22C141.06,197.91,140.79,197.78,140.79,197.5Zm6-8.94L143.37,186h0l.27,4.2Z"></path></g><g class="cls-1"><path class="cls-2" d="M149.6,174.74a.63.63,0,0,1,0-.68l2-1.76a.63.63,0,0,1,.68,0l8,9.35,4.2-3.52a.59.59,0,0,1,.68,0l1.63,1.9a.61.61,0,0,1,0,.67l-6.64,5.56a.63.63,0,0,1-.68,0Z"></path></g><g class="cls-1"><path class="cls-2" d="M159.36,165.94a.59.59,0,0,1-.14-.68l6-7.45a.6.6,0,0,1,.68-.14l2,1.63a.58.58,0,0,1,.14.67l-3.93,5,2.3,1.76,3.25-4.07a.6.6,0,0,1,.68-.13l2,1.62a.6.6,0,0,1,.14.68l-3.25,4.07,2.44,1.89,3.92-5a.6.6,0,0,1,.68-.14l2,1.49a.59.59,0,0,1,.14.68l-6,7.45a.59.59,0,0,1-.68.14Z"></path></g><g class="cls-1"><path class="cls-2" d="M179.81,161.06l-1.21-1.9a.64.64,0,0,1,.27-.81,5.82,5.82,0,0,0,2.57-2.31,1.39,1.39,0,0,0-.54-2c-.81-.4-1.9,0-3.12,1.09-1.62,1.35-4.06,3-6.5,1.62-2-1.08-3.25-3.66-1.63-6.77a8.46,8.46,0,0,1,3.8-3.66c.27-.14.67,0,.67.27l1.09,1.9c.13.27.13.67-.14.81a8.6,8.6,0,0,0-2.71,2.3,1.28,1.28,0,0,0,.41,1.77c.81.4,1.63,0,3.12-1.22s4.06-3.12,6.77-1.77c2.17,1.09,3.25,3.93,1.76,7.05a7.3,7.3,0,0,1-3.93,3.79C180.09,161.33,180,161.33,179.81,161.06Z"></path></g><g class="cls-1"><path class="cls-3" d="M29.42,65a.73.73,0,0,1-.54-.27l-.68-3.12-3.11.68a.75.75,0,0,1-.55-.27l-.4-1.5a.69.69,0,0,1,.27-.54l3.11-.67-.67-3.12c0-.27.13-.41.27-.41l1.49-.27a.71.71,0,0,1,.54.27l.68,3.12,3.11-.68c.28,0,.41.14.41.27L33.62,60a.68.68,0,0,1-.27.54l-3.12.68.68,3.12a.68.68,0,0,1-.27.54Z"></path></g><g class="cls-1"><path class="cls-3" d="M181.31,60.93c0-.27.27-.27.54-.27l3,.81.81-3.11c0-.27.27-.27.54-.27l1.49.4c.27,0,.41.27.27.54l-.81,3,3.12.81c.27,0,.27.27.27.54l-.41,1.49c0,.27-.27.41-.54.27l-3.12-.81-.81,3.11c0,.28-.27.28-.54.28l-1.49-.41c-.27,0-.41-.27-.27-.54l.81-3.12-3-.81c-.27,0-.27-.27-.27-.54Z"></path></g><g class="cls-1"><path class="cls-3" d="M26.58,132.06c.13-.13.4-.27.54-.13l2.71,1.62,1.62-2.71c.14-.13.41-.27.55-.13l1.35.81c.14.14.27.41.14.54l-1.63,2.71,2.71,1.63c.14.13.27.41.14.54l-.82,1.36c-.13.13-.4.27-.54.13l-2.71-1.62L29,139.52c-.14.13-.41.27-.55.13l-1.22-.81c-.13-.14-.27-.41-.13-.54l1.62-2.71L26,134c-.13-.14-.27-.41-.13-.54Z"></path></g><g class="cls-1"><path class="cls-3" d="M185.37,137.48a.33.33,0,0,1-.54-.13l-1.76-2.58-2.71,1.76a.34.34,0,0,1-.55-.13l-.81-1.22c-.13-.14,0-.41.14-.54l2.57-1.76L180,130.17c-.14-.14,0-.41.14-.55l1.22-.81a.34.34,0,0,1,.54.14l1.76,2.71,2.71-1.76c.13-.14.4,0,.54.13l.81,1.22a.33.33,0,0,1-.13.54l-2.71,1.76,1.76,2.58a.34.34,0,0,1-.14.54Z"></path></g></g><path id="Path_37" data-name="Path 37" class="cls-4" d="M55.93,149.68a66.78,66.78,0,1,1,94,8.67h0a66.7,66.7,0,0,1-94-8.67h0"></path><path class="cls-2" d="M107.42,66.08a41.39,41.39,0,1,0,41.32,41.46A41.43,41.43,0,0,0,107.42,66.08ZM79.92,80.17A38.78,38.78,0,0,1,134,79.49L114.47,99V96l-18.3,9.35V89H83.71v35.9h5.84l-10,9.62A38.6,38.6,0,0,1,79.92,80.17Zm49.86,20.6v21.4H86.42V91.69H93.6v18.15l18.16-9.35v9.9Zm4.87,34.14a38.59,38.59,0,0,1-53.38,1.29l11.81-11.32h39.27V96.29l-17.88,9.62V102.8l21.4-21.41A38.63,38.63,0,0,1,134.65,134.91Z"></path><path class="cls-2" d="M91.43,84.78c.54-.54.68-.68,1.09-.68s.54.14,1.08.68l.81.81a3.87,3.87,0,0,0,5.29-.81c.54-.54.67-.68,1.08-.68s.54.14,1.09.68a3.76,3.76,0,0,0,3,1.49V83.56c-.41,0-.55-.14-1.09-.68l-.81-.81a3.67,3.67,0,0,0-5.15.81c-.54.54-.68.68-1.08.68s-.55-.14-1.09-.68l-.81-.81a3.84,3.84,0,0,0-5.28.81c-.55.54-.68.68-1.09.68v2.71A3.59,3.59,0,0,0,91.43,84.78Z"></path></svg>