<svg xmlns="http://www.w3.org/2000/svg" id="Layer_1" data-name="Layer 1" viewBox="0 0 214.66 214.66"><defs><style>.cls-1{isolation:isolate;}.cls-2{fill:#a37f41;}.cls-3{fill:#fff;}.cls-4{fill:none;stroke:#a37f41;stroke-miterlimit:10;}</style></defs><g class="cls-1"><path class="cls-2" d="M20.11,124.4c-.13.13-.41.27-.54.13l-2.44-1.89-1.9,2.43a.78.78,0,0,1-.54.14l-1.22-.95c-.13-.13-.27-.4-.13-.54l1.89-2.44-2.57-1.9a.4.4,0,0,1,0-.54l.95-1.22c.13-.13.4-.27.54-.13l2.57,1.89,1.9-2.57a.4.4,0,0,1,.54,0l1.22,1c.14.13.27.4.14.54l-1.9,2.57,2.44,1.9c.14.14.27.41.14.54Z"></path></g><g class="cls-1"><path class="cls-2" d="M195.57,119.79a.34.34,0,0,1,.54.14l1.76,2.57,2.58-1.76a.33.33,0,0,1,.54.13l.95,1.22a.35.35,0,0,1-.14.55l-2.57,1.76L201,127c.13.14,0,.41-.14.54l-1.22.82a.34.34,0,0,1-.54-.14l-1.76-2.57-2.57,1.76c-.14.13-.41,0-.55-.14L193.4,126a.34.34,0,0,1,.14-.54l2.57-1.76-1.76-2.57a.34.34,0,0,1,.14-.55Z"></path></g><g class="cls-1"><path class="cls-2" d="M39.35,161.79c0-.27.27-.4.41-.27l3.11.54.55-3.11c0-.27.27-.41.4-.27l1.49.27a.44.44,0,0,1,.41.4l-.54,3.12,3.11.54c.27,0,.41.27.27.41l-.27,1.49a.44.44,0,0,1-.4.41l-3.12-.55-.54,3.12c0,.27-.27.41-.41.27l-1.49-.27a.44.44,0,0,1-.41-.41l.55-3.11-3.12-.55c-.27,0-.41-.27-.27-.4Z"></path></g><g class="cls-1"><path class="cls-3" d="M9.41,99.87c-.27,0-.41-.27-.41-.54l1.36-9.48c0-.27.27-.41.54-.41l2.44.41c.27,0,.4.27.4.54l-1,6.37,2.85.4L16.32,92c0-.28.27-.41.54-.41L19.3,92c.27,0,.4.27.4.54L19,97.71l3.11.4.95-6.37c0-.27.27-.4.54-.4l2.44.4c.27,0,.41.28.41.55l-1.36,9.48c0,.27-.27.41-.54.41Z"></path></g><g class="cls-1"><path class="cls-3" d="M25.53,86.19,24,84.56c-.27-.27,0-.67.14-.81A7,7,0,0,0,26.48,81a1.41,1.41,0,0,0-.81-1.9c-1-.27-1.9.14-3,1.49-1.36,1.63-3.66,3.53-6.24,2.58-2.16-.81-3.79-3.12-2.57-6.5a8.14,8.14,0,0,1,3.25-4.07.43.43,0,0,1,.68.14l1.35,1.62c.14.27.27.68,0,.81a8.49,8.49,0,0,0-2.44,2.71,1.31,1.31,0,0,0,.68,1.77c.81.27,1.63-.14,3-1.63s3.52-3.66,6.51-2.71c2.3.81,3.79,3.52,2.71,6.64a7.46,7.46,0,0,1-3.39,4.33C25.94,86.46,25.8,86.46,25.53,86.19Z"></path></g><g class="cls-1"><path class="cls-3" d="M23.36,63.83l-1.62,2.85a.33.33,0,0,1-.54.13L19,65.59c-.14-.13-.27-.4-.14-.54l5-8.94a.34.34,0,0,1,.55-.13l2.16,1.21c.14.14.28.41.14.55l-1.63,2.84,10.71,6c.13.14.27.41.13.55l-1.35,2.43c-.14.14-.41.28-.54.14Z"></path></g><g class="cls-1"><path class="cls-3" d="M38.54,61.39,31.36,46v-.41l.13-.13a.49.49,0,0,1,.41-.14l16.53,4.47a.5.5,0,0,1,.27.68l-1.63,1.9a.84.84,0,0,1-.94.27l-1.9-.54-4.07,4.74L41,58.55a.85.85,0,0,1-.14,1l-1.62,1.89A.38.38,0,0,1,38.54,61.39ZM40.84,51l-4.06-1.08h0l1.76,3.79Z"></path></g><g class="cls-1"><path class="cls-3" d="M48,29.55a7.45,7.45,0,0,1,5.69-1.62c.27,0,.41.27.41.54l-.27,2.58a.43.43,0,0,1-.41.4,4.29,4.29,0,0,0-3.11.95,4.73,4.73,0,0,0,5.82,7.45,5.27,5.27,0,0,0,1.76-2.71c0-.27.27-.4.54-.4l2.58.4c.27,0,.41.27.41.54a7.68,7.68,0,0,1-3.12,5.15,8.24,8.24,0,0,1-11.65-1.49A8.39,8.39,0,0,1,48,29.55Z"></path></g><g class="cls-1"><path class="cls-3" d="M60.08,22.51c-.14-.27,0-.54.14-.54l2.43-1.22c.28-.14.55,0,.55.13l7,13.55c.14.27,0,.54-.13.54l-2.44,1.22c-.27.14-.54,0-.54-.13Z"></path></g><g class="cls-1"><path class="cls-3" d="M78.37,14.11a8.14,8.14,0,0,1,10.3,5.55,8.27,8.27,0,1,1-10.3-5.55ZM82,26.44a4.6,4.6,0,0,0,3.12-5.69,4.65,4.65,0,0,0-5.69-3.12,4.47,4.47,0,0,0-3,5.69A4.41,4.41,0,0,0,82,26.44Z"></path></g><g class="cls-1"><path class="cls-3" d="M95.85,10.59a.37.37,0,0,1,.41-.41h.54l9.62,8.4h0L106,10.45a.37.37,0,0,1,.41-.41l2.71-.13c.27,0,.4.13.4.41l.68,15.44a.36.36,0,0,1-.4.41h-.41c-.14,0-.27,0-.27-.14l-9.49-8.8h0l.41,8.53a.37.37,0,0,1-.41.41l-2.71.13a.35.35,0,0,1-.4-.4Z"></path></g><g class="cls-1"><path class="cls-3" d="M115.36,25.49l10-13.82c.13-.14.27-.27.4-.14h.27a.29.29,0,0,1,.27.28l4.07,16.66c.13.27-.14.54-.54.54l-2.58-.54a.85.85,0,0,1-.67-.68l-.28-2-6.09-1.22L119,26.17c-.14.27-.41.4-1,.4L115.63,26C115.22,26,115.22,25.76,115.36,25.49Zm10.3-3.12-1-4.06h0l-2.44,3.39Z"></path></g><g class="cls-1"><path class="cls-3" d="M143,16.55c.14-.14.41-.27.54-.14l.41.14c.13,0,.27.27.27.4l.54,11.25h0l9.08-6.77c.13-.14.41-.14.41,0l.27.13a.73.73,0,0,1,.27.54l-4.2,15a.5.5,0,0,1-.68.27l-2.44-1.22a1,1,0,0,1-.27-.54l2.17-6.91h0l-6.64,5.15c-.14.14-.41.14-.41,0l-.4-.13c-.14,0-.28-.28-.28-.41l-.27-8.4h0l-3.93,6c-.13.14-.4.27-.54.14l-2.44-1.22c-.27-.14-.4-.41-.13-.68Z"></path></g><g class="cls-1"><path class="cls-3" d="M164.68,28.74a.59.59,0,0,1,.68-.13l2.16,1.62a.6.6,0,0,1,.14.68L158.58,43.1a.6.6,0,0,1-.68.14l-2.16-1.63a.57.57,0,0,1-.14-.67Z"></path></g><g class="cls-1"><path class="cls-3" d="M174.43,36.6a.59.59,0,0,1,.68,0l6.64,6.91a.59.59,0,0,1,0,.68L180,46a.63.63,0,0,1-.68,0l-4.47-4.61-2,2,3.66,3.8a.63.63,0,0,1,0,.68l-1.77,1.76a.61.61,0,0,1-.67,0l-3.66-3.8L168.2,48l4.47,4.61a.59.59,0,0,1,0,.68L170.91,55a.63.63,0,0,1-.68,0l-6.64-6.91a.63.63,0,0,1,0-.68Z"></path></g><g class="cls-1"><path class="cls-3" d="M187.71,51.1c.14-.14.41,0,.54.13l.41.55L186,64.24h0L193,60a.33.33,0,0,1,.54.14l1.49,2.3c.13.13,0,.54-.14.54l-13.28,8c-.13.14-.4,0-.54-.13l-.13-.27s-.14-.27,0-.27l3.11-12.47h0l-7.31,4.47a.34.34,0,0,1-.55-.13L174.7,59.9c-.13-.13,0-.54.14-.54Z"></path></g><g class="cls-1"><path class="cls-3" d="M196.79,75.35l-1.08-3.12c-.14-.27,0-.54.27-.54l2.43-.81c.28-.14.41,0,.55.27l3.38,9.62c.14.27,0,.54-.27.54l-2.44.81c-.27.14-.4,0-.54-.27L198,78.74,186.36,82.8a.35.35,0,0,1-.55-.27L184.87,80a.35.35,0,0,1,.27-.55Z"></path></g><g class="cls-1"><path class="cls-3" d="M205.6,96.08a8.25,8.25,0,0,1-7.19,9.21,8.26,8.26,0,0,1-2-16.39A8.25,8.25,0,0,1,205.6,96.08Zm-12.88,1.63a4.64,4.64,0,1,0,4.07-5A4.41,4.41,0,0,0,192.72,97.71Z"></path></g><g class="cls-1"><path class="cls-3" d="M59.67,170.73c.14-.13.41-.27.55-.13l.4.27,2.31,12.6h0l4.74-6.64a.59.59,0,0,1,.68-.13l2.3,1.62c.13.14.27.41.13.54l-9.07,12.6c-.14.14-.41.28-.55.14l-.27-.27-.13-.27-2-12.74h0l-5,6.91a.58.58,0,0,1-.67.14l-2.17-1.63a.6.6,0,0,1-.14-.68Z"></path></g><g class="cls-1"><path class="cls-3" d="M67.8,194.72l12.47-11.66a.5.5,0,0,1,.4-.13l.28.13c.13,0,.27.28.27.41l1,17.07c0,.27-.28.54-.55.41L79.18,200a.75.75,0,0,1-.54-.81l-.13-2-5.83-2.3-1.49,1.36a.85.85,0,0,1-1,.27l-2.3-.95C67.67,195.26,67.53,195,67.8,194.72Zm10.57-1.09-.27-4.2h0l-3,2.85Z"></path></g><g class="cls-1"><path class="cls-3" d="M91.78,190.11l-3.25-.54c-.27,0-.4-.27-.4-.54l.4-2.44c0-.27.27-.41.55-.41l10,1.9c.27,0,.41.27.41.54l-.41,2.44c0,.27-.27.4-.54.4l-3.25-.54L93,203c0,.27-.27.41-.54.41l-2.71-.54c-.27,0-.4-.28-.4-.55Z"></path></g><g class="cls-1"><path class="cls-3" d="M102.62,189a.36.36,0,0,1,.41-.41l2.85-.14a.36.36,0,0,1,.4.41l.27,9.35a2.92,2.92,0,0,0,5.83-.14l-.27-9.35a.35.35,0,0,1,.4-.4l2.85-.14a.37.37,0,0,1,.41.41l.27,9.48a6.57,6.57,0,0,1-13.14.41Z"></path></g><g class="cls-1"><path class="cls-3" d="M120.64,187.81c0-.27,0-.41.28-.55l6.63-1.89a5.17,5.17,0,0,1,6.24,3.38,5.1,5.1,0,0,1-2,5.42l4.61,4.75a.51.51,0,0,1-.13.81l-3,.81c-.13,0-.4,0-.4-.13l-4.61-5-1.49.41,1.63,5.69c0,.27-.14.54-.27.54l-2.58.68c-.27,0-.54-.14-.54-.27Zm8.54,4.33a1.88,1.88,0,0,0,1.22-2.3,1.74,1.74,0,0,0-2.17-1.22l-3.25.95,1,3.52Z"></path></g><g class="cls-1"><path class="cls-3" d="M141.92,197.15l-1.09-17.07c0-.13.14-.27.27-.4l.14-.14c.13-.13.27,0,.4,0l13.82,10.16a.38.38,0,0,1,0,.68l-2.3,1.22a.82.82,0,0,1-.95-.14l-1.62-1.21-5.56,3,.14,2a1,1,0,0,1-.41,1l-2.17,1.22C142.19,197.7,141.92,197.56,141.92,197.15Zm6-8.8-3.39-2.44h0l.27,4.2Z"></path></g><g class="cls-1"><path class="cls-3" d="M150.72,174.39a.61.61,0,0,1,0-.67l2-1.77a.61.61,0,0,1,.67,0l8,9.35,4.2-3.52a.58.58,0,0,1,.67,0l1.63,1.9a.58.58,0,0,1,0,.67L161.29,186a.59.59,0,0,1-.68,0Z"></path></g><g class="cls-1"><path class="cls-2" d="M172.4,166.26c-.27,0-.41-.13-.41-.27l-.67-3.11-3.12.54c-.27,0-.41-.14-.41-.27l-.27-1.49a.75.75,0,0,1,.27-.55l3.12-.67-.68-3.12c0-.27.14-.41.27-.41l1.49-.27a.73.73,0,0,1,.55.27l.67,3.12,3.12-.68c.27,0,.41.14.41.27l.27,1.49a.73.73,0,0,1-.27.55l-3.12.67.68,3.12c0,.27-.14.41-.27.41Z"></path></g><path id="Path_33" data-name="Path 33" class="cls-4" d="M55.88,149.6a66.77,66.77,0,1,1,94,8.67h0a66.7,66.7,0,0,1-94-8.67"></path><path id="Path_35" data-name="Path 35" class="cls-3" d="M79.48,106.87a22,22,0,0,1,.14-3v-.43c.15-2,.29-4,.58-6.06a44.46,44.46,0,0,1,2.17-8.66,28.94,28.94,0,0,1,2.16-4.9A31.37,31.37,0,0,1,86.84,80l-1.3-1.3a5.31,5.31,0,0,1,0-7.21,5.24,5.24,0,0,1,3.75-1.59,5.73,5.73,0,0,1,3.61,1.44l2.45,2.46a9.38,9.38,0,0,1,2-.29H117a9.47,9.47,0,0,1,2,.29l2.45-2.46a5,5,0,0,1,7.21,0,5.23,5.23,0,0,1,.14,7.36h0L127.52,80a32.65,32.65,0,0,1,2.3,3.75,36.7,36.7,0,0,1,2.17,4.9,43.18,43.18,0,0,1,2.16,8.51c.29,2,.58,4.19.72,6.21v.43a40.85,40.85,0,0,1,0,6.06v.43a43.16,43.16,0,0,1-.72,6.06,44.8,44.8,0,0,1-2.16,8.66,29.8,29.8,0,0,1-2.17,4.9v.14a32.65,32.65,0,0,1-2.3,3.75l1.29,1.3a5.33,5.33,0,0,1,0,7.22,5.22,5.22,0,0,1-7.35.14h0L119,140.05a10.15,10.15,0,0,1-2,.29H97.37a10,10,0,0,1-2-.29L92.9,142.5a5.23,5.23,0,0,1-7.36,0,5,5,0,0,1,0-7.21l1.3-1.3a32.18,32.18,0,0,1-2.31-3.75,35,35,0,0,1-2.16-4.91,47.22,47.22,0,0,1-2.17-8.65c-.29-2-.58-4.19-.72-6.2v-3.61M90,79.75l-.72.86a26.22,26.22,0,0,0-2.74,4.19,45.82,45.82,0,0,0-2,4.61,50.26,50.26,0,0,0-2,8.08,42.93,42.93,0,0,0-.58,5.92l-1.15.43h1.15a41.62,41.62,0,0,0,0,5.91l-1.15.58h1.15c.15,2,.29,3.9.58,5.77a48,48,0,0,0,2,8.22,31.94,31.94,0,0,0,2,4.62,26.14,26.14,0,0,0,2.74,4.18L90,134l-2.74,2.74a2.74,2.74,0,0,0,.14,3.89,2.89,2.89,0,0,0,3.9,0l3.46-3.46.72.15a10,10,0,0,0,2,.29h19.62a8.77,8.77,0,0,0,2-.29l.72-.15,3.46,3.46a2.75,2.75,0,0,0,3.9-.14,2.87,2.87,0,0,0,0-3.89l-2.74-2.6.72-.87a26.14,26.14,0,0,0,2.74-4.18l1.15.43-1-.57a43.82,43.82,0,0,0,2-4.62,50.26,50.26,0,0,0,2-8.08,42.94,42.94,0,0,0,.58-5.91l1.15-.44h-1.15a41.62,41.62,0,0,0,0-5.91l1.15-.58h-1.15c-.14-2-.29-3.89-.58-5.91a48,48,0,0,0-2-8.22,30.87,30.87,0,0,0-2-4.62,25.7,25.7,0,0,0-2.74-4.18l-.72-.87,2.74-2.74a2.87,2.87,0,0,0,0-3.89,2.83,2.83,0,0,0-2-.87,2.31,2.31,0,0,0-1.87.87L120,76.29h-.87a9.38,9.38,0,0,0-2-.29H97.37a8.19,8.19,0,0,0-2,.29l-.72.14L91.16,73a2.74,2.74,0,0,0-3.89.14,2.89,2.89,0,0,0,0,3.9Z"></path><path id="Path_36" data-name="Path 36" class="cls-3" d="M94.19,93.31h26v27.12h-26Zm2.46,24.81h21.2V95.62H96.65Z"></path></svg>