<svg xmlns="http://www.w3.org/2000/svg" viewBox="0 0 1026.21 1027"><defs><style>.cls-1{fill:#fff;}.cls-2{fill:#00574d;}</style></defs><g id="Layer_2" data-name="Layer 2"><g id="Layer_1-2" data-name="Layer 1"><g id="Artwork_4" data-name="Artwork 4"><path class="cls-1" d="M66.58,388.74l54.05-17.93a2.64,2.64,0,0,1,3.39,3.28l-4.83,17.84a2.82,2.82,0,0,1-1.83,1.86l-33.3,11.46L107,432a2.6,2.6,0,0,1,.64,2.53l-4.83,17.84a2.63,2.63,0,0,1-4.57,1.12L60.88,410.33,17.1,398.48a2.8,2.8,0,0,1-1.91-3.32l4.42-16.33a2.7,2.7,0,0,1,3.32-1.9Z"></path><path class="cls-1" d="M98.12,484.52a2.72,2.72,0,0,1,2.67,2.75l-1,57.78a2.76,2.76,0,0,1-2.87,2.62l-16.19-.24A2.73,2.73,0,0,1,78,544.72l.66-38.88-17.78-.28-.5,31.89a2.74,2.74,0,0,1-2.68,2.62l-15.14-.24a2.66,2.66,0,0,1-2.6-2.7l.53-31.29-19.54-.31L20.28,545a2.73,2.73,0,0,1-2.8,2.66l-14.81-.24A2.71,2.71,0,0,1,0,544.68l.94-59A2.72,2.72,0,0,1,3.7,483Z"></path><path class="cls-1" d="M100.26,584.91a2.7,2.7,0,0,1,3.27,2l10.3,41.25a30.92,30.92,0,0,1-22.29,37.51c-12.69,3.17-25-2.7-32.83-13.49L28.39,679.79a2.69,2.69,0,0,1-4.58-1.35l-4.58-18.35a2.58,2.58,0,0,1,.69-2.51l32-27.48-2.38-9.52-35.17,8.79a2.81,2.81,0,0,1-3.28-2L7,611a2.7,2.7,0,0,1,2-3.27ZM72.13,636.63c1.42,5.65,7.86,9.17,13.65,7.72a10.88,10.88,0,0,0,7.87-13.1l-5.09-20.41L67,616.21Z"></path><path class="cls-1" d="M133.57,692.82a2.7,2.7,0,0,1,3.68,1l16.24,28.88c8.23,14.63,4.95,32.3-8.07,39.61-9.54,5.37-21.29.72-27.66-3.36,1,8.1.54,21.56-10.87,28-13.88,7.81-30.82,1.19-39.11-13.56L50.49,742.65a2.7,2.7,0,0,1,1-3.68ZM84.11,760.94a10.31,10.31,0,0,0,14.06,3.83c5-2.78,5.68-10.2,3-15l-5.64-10-17.73,10ZM117,740.3a10.13,10.13,0,0,0,13.8,3.65,9.64,9.64,0,0,0,3.55-13.41L129,720.87l-17.35,9.76Z"></path><path class="cls-1" d="M114.05,837.72l99.43-35.4a2.87,2.87,0,0,1,2.81.62l1,1a2.9,2.9,0,0,1,.59,2.82l-37,98.84a2.52,2.52,0,0,1-4.34.87l-11.07-11.25c-1.79-1.82-2-3.23-.95-6l4.41-11.53L141.8,850.11l-11.69,4.33a5.32,5.32,0,0,1-6-1.26l-11-11.15A2.51,2.51,0,0,1,114.05,837.72ZM176.73,858l9.14-24.16-.1-.1-24.2,8.85Z"></path><path class="cls-1" d="M326,887.47a2.74,2.74,0,0,1,3.2-1.25l2.13.79a3.13,3.13,0,0,1,1.77,2.18l9.61,69.06.27.1,52.27-46.16a3.13,3.13,0,0,1,2.76-.49l2.13.78a2.73,2.73,0,0,1,1.61,3l-18.11,95.19a2.6,2.6,0,0,1-3.61,2l-15.74-5.83a2.91,2.91,0,0,1-1.75-3.07l9.26-43.43-.27-.1-38.39,34.91a3.31,3.31,0,0,1-2.82.63l-2.39-.89a3.06,3.06,0,0,1-1.73-2.3l-6.54-51.55-.27-.1-21.12,39a2.77,2.77,0,0,1-3.32,1.2l-15.74-5.82a2.62,2.62,0,0,1-1.45-3.88Z"></path><path class="cls-1" d="M434,1018.94l49-93.5a2.87,2.87,0,0,1,2.49-1.45l1.42.07a2.88,2.88,0,0,1,2.34,1.67l40,97.69a2.51,2.51,0,0,1-2.59,3.58l-15.76-.75c-2.56-.12-3.66-1-4.81-3.78L501.47,1011l-38.64-1.82-5.65,11.12a5.27,5.27,0,0,1-5.27,3.17l-15.63-.73A2.51,2.51,0,0,1,434,1018.94Zm59.81-27.65-9.69-23.94H484l-11.75,22.94Z"></path><path class="cls-1" d="M574.86,941.3l-20,3.81a2.69,2.69,0,0,1-3.16-2.14l-2.91-15.23a2.71,2.71,0,0,1,2.15-3.16l62-11.82a2.69,2.69,0,0,1,3.16,2.14l2.9,15.23a2.69,2.69,0,0,1-2.14,3.16l-20,3.81,14.22,74.59a2.8,2.8,0,0,1-2.14,3.16L592.24,1018a2.8,2.8,0,0,1-3.16-2.14Z"></path><path class="cls-1" d="M647.61,904.36a2.71,2.71,0,0,1,1.35-3.58l53.62-24.29a2.71,2.71,0,0,1,3.58,1.35l6.4,14.12a2.7,2.7,0,0,1-1.35,3.57l-35.88,16.25,7.28,16.07,29.53-13.38a2.78,2.78,0,0,1,3.57,1.35l6.4,14.11a2.71,2.71,0,0,1-1.35,3.58l-29.53,13.38,7.92,17.48L735,948.12a2.69,2.69,0,0,1,3.57,1.35l6.4,14.12a2.69,2.69,0,0,1-1.35,3.57L690,991.45a2.7,2.7,0,0,1-3.58-1.34Z"></path><path class="cls-1" d="M139.4,262.43c-9.52-7.38-11.39-21.38-4.29-30.54a22.33,22.33,0,0,1,31-3.91c9.15,7.1,10.81,21.13,3.43,30.65A21.88,21.88,0,0,1,139.4,262.43Z"></path><path class="cls-1" d="M259.07,126.19l-54.88-26.8a2.82,2.82,0,0,1-.14-5l17.08-10.06a3,3,0,0,1,2.8-.06l34.12,16.19,2.41-37.69a2.79,2.79,0,0,1,1.41-2.42L279,50.26a2.82,2.82,0,0,1,4.35,2.57l-3.68,61.08,24.68,41.92a3,3,0,0,1-1,4L287.63,169a2.9,2.9,0,0,1-4-1Z"></path><path class="cls-1" d="M338.82,29.79a2.9,2.9,0,0,1,2-3.56l60.9-16.67a2.9,2.9,0,0,1,3.56,2l4.39,16a2.9,2.9,0,0,1-2,3.56L366.92,42.33l5,18.24,33.54-9.18a3,3,0,0,1,3.56,2l4.39,16a2.89,2.89,0,0,1-2,3.56L377.83,82.2l5.44,19.86L424,90.9a2.9,2.9,0,0,1,3.56,2L432,109a2.89,2.89,0,0,1-2,3.56L369,129.2a2.9,2.9,0,0,1-3.56-2Z"></path><path class="cls-1" d="M474.77,2.85a2.91,2.91,0,0,1,3-2.85l44.94.57a33.38,33.38,0,0,1,33.06,33.57c-.18,14.12-9.68,25.37-23.1,30.58L553.19,104a2.9,2.9,0,0,1-2.67,4.42l-18.46-.25a2.92,2.92,0,0,1-2.5-1.45l-20.45-42-10.88-.14-.48,39.11a2.91,2.91,0,0,1-2.94,2.86l-18.4-.22a2.9,2.9,0,0,1-2.9-2.92Zm45.08,43.06c6.07.07,11.32-5.49,11.4-11.7a11.33,11.33,0,0,0-11.11-11.39l-21.91-.27L498,45.64Z"></path><path class="cls-1" d="M625,15.94A2.9,2.9,0,0,1,628.62,14l34,10.47c17.2,5.3,27.7,21.46,23,36.76-3.46,11.22-16,16.28-24,17.82,6.74,5.58,16.34,16.36,12.21,29.77-5,16.32-23.1,23.68-40.44,18.34L597.17,116a2.9,2.9,0,0,1-1.91-3.63Zm11.84,89.5A11.06,11.06,0,0,0,650.6,98c1.8-5.83-3.13-12.13-8.81-13.88L630,80.51l-6.43,20.84Zm10.36-40.37a10.88,10.88,0,0,0,13.44-7.35,10.36,10.36,0,0,0-7.15-13.06l-11.36-3.5-6.29,20.4Z"></path><path class="cls-1" d="M691.4,143.38l96.12-59.75a3.1,3.1,0,0,1,3.09,0l1.28.83a3.11,3.11,0,0,1,1.25,2.83l-16.24,112a2.69,2.69,0,0,1-4.34,1.9l-14.16-9.27c-2.3-1.5-2.82-2.94-2.38-6.11l2-13.09L723.31,150,712,157.24a5.67,5.67,0,0,1-6.6.06l-14-9.18A2.7,2.7,0,0,1,691.4,143.38Zm70.32,7,4.07-27.4-.13-.09-23.34,14.8Z"></path><path class="cls-1" d="M933.86,224.12a3,3,0,0,1,3.49,1.17l1.21,2.12a3.36,3.36,0,0,1,0,3l-39.6,63.43.15.27,74.76-2a3.35,3.35,0,0,1,2.61,1.5l1.21,2.11a2.93,2.93,0,0,1-.76,3.6l-80.38,65.86a2.8,2.8,0,0,1-4.36-.85l-8.93-15.61a3.1,3.1,0,0,1,.67-3.73l37.49-29.37-.15-.26-55.61,2.31a3.6,3.6,0,0,1-2.74-1.42l-1.37-2.38a3.33,3.33,0,0,1,.17-3.09l30.09-46.91-.16-.26-44.23,17.58a3,3,0,0,1-3.56-1.31l-8.94-15.61a2.79,2.79,0,0,1,1.47-4.18Z"></path><path class="cls-1" d="M904.74,390l109.88,27.13a3.12,3.12,0,0,1,2.15,2.23l.29,1.49a3.12,3.12,0,0,1-1.15,2.87l-91.55,66.54a2.69,2.69,0,0,1-4.39-1.78l-3.25-16.61c-.52-2.7.14-4.07,2.72-6l10.77-7.7-8-40.71-13-3a5.69,5.69,0,0,1-4.65-4.69l-3.22-16.46A2.69,2.69,0,0,1,904.74,390Zm44.06,55.24,22.47-16.21,0-.15-26.89-6.39Z"></path><path class="cls-1" d="M1002.52,538l1.31-21.77a2.9,2.9,0,0,1,3.07-2.72l16.59,1a2.9,2.9,0,0,1,2.72,3.07l-4.08,67.59a2.91,2.91,0,0,1-3.07,2.72l-16.59-1a2.9,2.9,0,0,1-2.72-3.07l1.31-21.77-81.29-4.91a3,3,0,0,1-2.72-3.07l1.11-18.27a3,3,0,0,1,3.07-2.71Z"></path><path class="cls-1" d="M1006.71,649.2a2.89,2.89,0,0,1,1.86,3.65l-19.56,60a2.89,2.89,0,0,1-3.65,1.85l-15.8-5.15a2.89,2.89,0,0,1-1.86-3.65l13.09-40.16-18-5.86L952,693a3,3,0,0,1-3.65,1.86l-15.81-5.15a2.9,2.9,0,0,1-1.85-3.66l10.77-33-19.57-6.38-13.09,40.16a2.9,2.9,0,0,1-3.65,1.86l-15.81-5.15a2.89,2.89,0,0,1-1.85-3.65l19.55-60a2.9,2.9,0,0,1,3.66-1.85Z"></path><path class="cls-1" d="M864.37,787.13c9.3,7.65,10.79,21.69,3.43,30.65a22.33,22.33,0,0,1-31.13,3c-8.95-7.36-10.22-21.43-2.57-30.74A21.89,21.89,0,0,1,864.37,787.13Z"></path><path class="cls-2" d="M645,339.47c-19.85-17.69-47.09-26.19-76.42-26.19-46.49,0-98.22,21.34-133.91,61.28C340,480.44,320.82,676.11,333.91,687.8c1.21,1.09,4.37,1.65,9.16,1.65,41.54,0,206-41.79,290.86-136.76C692.14,487.58,696.28,385.2,645,339.47ZM404.68,618.84l128.94-8.37c-67.16,37.46-141.26,57.59-177,62.26ZM576.16,403l-4.25-74c21.74.54,40.71,6.15,55.51,16.48Zm-14.7,16.5-41.94,47-7.26-126.72a161.33,161.33,0,0,1,44-10.33ZM504.81,483,464,528.78l-8.78-153A172.74,172.74,0,0,1,497,346.59Zm126.5,48.13-156.47,9,40.77-45.74,139.65-8A171.52,171.52,0,0,1,631.31,531.16ZM663.57,410,587,414.37l52.25-58.6C651.89,369.26,660.34,388,663.57,410ZM440.52,391.73l8.82,153.55-40.55,45.46L402.32,450.4C413.86,428.13,426.7,408.37,440.52,391.73Zm-52.45,89,5.85,126.65-48,53.86c.45-20.56,4.23-56,15.34-100.17A548.74,548.74,0,0,1,388.07,480.78ZM562.46,593l-143,9.27,40.63-45.59,157.16-9C601.28,564.49,582.55,579.59,562.46,593Zm97.64-122.5-129.79,7.46,41.94-47L665,425.55A161.84,161.84,0,0,1,660.1,470.45Z"></path></g></g></g></svg>